<?xml version="1.0" encoding="iso-8859-1"?>
<!-- Generator: Adobe Illustrator 19.0.0, SVG Export Plug-In . SVG Version: 6.00 Build 0)  -->
<svg version="1.1" id="Capa_1" xmlns="http://www.w3.org/2000/svg" xmlns:xlink="http://www.w3.org/1999/xlink" x="0px" y="0px"
	 viewBox="0 0 480 480" style="enable-background:new 0 0 480 480;" xml:space="preserve">
<path style="fill:#FBB03B;" d="M8,112v80c26.51,0,48,21.49,48,48s-21.49,48-48,48v80h464v-80c-26.51,0-48-21.49-48-48
	s21.49-48,48-48l0,0v-80H8z"/>
<path style="fill:#F7931E;" d="M152,112H8v80c26.51,0,48,21.49,48,48s-21.49,48-48,48v80h144V112z"/>
<rect x="144" y="264" width="16" height="16"/>
<rect x="144" y="296" width="16" height="16"/>
<rect x="144" y="328" width="16" height="16"/>
<rect x="144" y="232" width="16" height="16"/>
<rect x="144" y="200" width="16" height="16"/>
<rect x="144" y="168" width="16" height="16"/>
<rect x="144" y="136" width="16" height="16"/>
<rect x="32" y="136" width="16" height="16"/>
<rect x="432" y="136" width="16" height="16"/>
<rect x="432" y="328" width="16" height="16"/>
<rect x="32" y="328" width="16" height="16"/>
<path d="M472,104H8c-4.418,0-8,3.582-8,8v80c0,4.418,3.582,8,8,8c22.091,0,40,17.909,40,40s-17.909,40-40,40c-4.418,0-8,3.582-8,8
	v80c0,4.418,3.582,8,8,8h464c4.418,0,8-3.582,8-8v-80c0-4.418-3.582-8-8-8c-22.091,0-40-17.909-40-40s17.909-40,40-40
	c4.418,0,8-3.582,8-8v-80C480,107.582,476.418,104,472,104z M464,184.568c-30.614,4.394-51.87,32.773-47.476,63.388
	c3.532,24.61,22.867,43.944,47.476,47.476V360H16v-64.568c30.614-4.394,51.87-32.773,47.476-63.388
	C59.944,207.435,40.61,188.1,16,184.568V120h448V184.568z"/>
<path d="M240,224c17.673,0,32-14.327,32-32s-14.327-32-32-32s-32,14.327-32,32S222.327,224,240,224z M240,176
	c8.837,0,16,7.163,16,16s-7.163,16-16,16c-8.837,0-16-7.163-16-16S231.163,176,240,176z"/>
<path d="M304,288c0,17.673,14.327,32,32,32s32-14.327,32-32s-14.327-32-32-32S304,270.327,304,288z M352,288c0,8.837-7.163,16-16,16
	s-16-7.163-16-16s7.163-16,16-16S352,279.163,352,288z"/>
<rect x="197.494" y="231.982" transform="matrix(-0.7071 0.7071 -0.7071 -0.7071 661.3441 206.0254)" width="181.017" height="16"/>
<g>
</g>
<g>
</g>
<g>
</g>
<g>
</g>
<g>
</g>
<g>
</g>
<g>
</g>
<g>
</g>
<g>
</g>
<g>
</g>
<g>
</g>
<g>
</g>
<g>
</g>
<g>
</g>
<g>
</g>
</svg>
