<svg id="Capa_1" enable-background="new 0 0 508 508" height="512" viewBox="0 0 508 508" width="512" xmlns="http://www.w3.org/2000/svg"><path d="m471 130h-4.493c-63.726 9.349-127.563 9.317-191.507 0h-4v-16c0-13.255 10.745-24 24-24h152c13.255 0 24 10.745 24 24z" fill="#fff"/><path d="m381 175h-40v-125h-99v-40h99c22.091 0 40 17.909 40 40z" fill="#fff"/><path d="m442 458h-153.377l6.177-68.223-19.8-259.777h192z" fill="#ff5a58"/><path d="m297.9 222c0 32-250.63 32-250.63 0-5.27-10.24-4.24-23.08 3.63-32.46 7.25-8.64 18.41-12.08 28.72-9.9 1.63-8.26 6.39-15.91 13.93-21 9.7-6.54 21.62-7.23 31.61-2.89-1.47-13.2 7.68-25.34 20.93-27.44 13.18-2.09 25.58 6.54 28.34 19.43 11.74-9.82 28.8-11.8 42.82-3.71 12.17 7.03 18.91 19.86 18.74 32.979 17.34-10.54 40.24-7.03 53.53 9.09 8.57 10.391 11.23 23.721 8.38 35.901z" fill="#ffc144"/><path d="m275.865 498h-203.73c-5.173 0-9.493-3.946-9.959-9.098l-24.176-266.902h272l-24.176 266.902c-.467 5.152-4.786 9.098-9.959 9.098z" fill="#ff5a58"/><path d="m310 222-24.18 266.9c-.46 5.15-4.78 9.1-9.96 9.1h-46.36l12.5-276zm-204 0 12.5 276h55.5v-276z" fill="#fff3da"/><path d="m292.246 418-3.623 40h153.377l2.976-40z" fill="#fff"/><path d="m481 119.992v-5.992c0-18.748-15.252-34-34-34h-56v-30c0-27.57-22.43-50-50-50h-99c-5.522 0-10 4.477-10 10v40c0 5.523 4.478 10 10 10h89v20h-36c-18.748 0-34 15.252-34 34v5.979c-6.471-.269-11 4.606-11 10.021 0 5.523 4.478 10 10 10h5.734l1.68 22.041c-7.704-1.512-15.739-1.289-23.44.782-3.441-11.416-11.113-21.324-21.726-27.454-13.421-7.746-29.634-8.301-43.349-2.122-7.413-10.847-20.636-16.993-34.375-14.814-13.806 2.188-24.477 12.14-28.144 24.782-9.884-1.029-19.916 1.399-28.426 7.137-6.936 4.681-12.244 11.132-15.465 18.656-11.182.279-21.863 5.301-29.251 14.104-6.898 8.221-10.018 18.634-9.099 28.888h-8.139c-5.522 0-10 4.477-10 10s4.478 10 10 10h2.865l6.575 72.57c1.23 13.532 21.15 11.722 19.92-1.81l-6.412-70.76h47.495l11.594 256h-35.907l-8.66-95.61c-1.188-13.213-21.098-11.423-19.91 1.79-.01.01-.01.01-.01.02l8.66 95.604c.933 10.305 9.571 18.196 19.918 18.196h203.734c10.346 0 18.985-7.891 19.918-18.196l1.976-21.804h144.244c5.229 0 9.573-4.027 9.971-9.24l24.295-318.76h5.734c5.522 0 10-4.477 10-10 0-5.27-3.569-9.852-11-10.008zm-140-79.992h-89v-20h89c16.542 0 30 13.458 30 30v30h-20v-30c0-5.523-4.478-10-10-10zm-46 60h152c7.72 0 14 6.28 14 14v6h-180v-6c0-7.72 6.28-14 14-14zm-9.209 40h170.418l-20.427 268h-132.59l15.944-176h2.864c5.522 0 10-4.477 10-10s-4.478-10-10-10h-12.979c-.082-11.677-4.143-22.996-11.785-32.261-2.706-3.284-5.76-6.153-9.071-8.593zm-227.23 55.968c4.643-5.532 11.861-7.734 18.991-6.544 6.739 1.125 11.126-3.521 11.879-7.848 1.052-6.044 4.638-11.221 9.709-14.645 6.542-4.41 14.616-4.753 22.036-2.01 7.889 2.917 14.727-3.148 13.923-10.278-.899-7.97 4.628-15.2 12.558-16.457 7.877-1.246 15.182 3.902 16.995 11.647 1.768 7.553 10.413 10.263 16.194 5.577 8.931-7.239 21.439-8.471 31.402-2.721 8.605 4.971 13.743 14.239 13.743 24.191 0 8.571 8.88 12.442 15.193 8.675 13.329-7.954 30.727-5.094 40.621 6.908 4.63 5.613 7.109 12.461 7.203 19.537h-234.697c-1.03-5.616.446-11.499 4.25-16.032zm125.439 292.032v-256h47.536l-11.594 256zm-67.536-256h47.536v256h-35.942zm159.395 256h-35.896l11.594-256h47.495zm23.709-40 1.812-20h132.878l-1.524 20zm-250.11-89.52c-5.523 0-10-4.477-10-10s4.477-10 10-10 10 4.477 10 10-4.477 10-10 10z"/></svg>