<?xml version="1.0" encoding="utf-8"?>
<!-- Svg Vector Icons : http://www.sfont.cn -->
<!DOCTYPE svg PUBLIC "-//W3C//DTD SVG 1.1//EN" "http://www.w3.org/Graphics/SVG/1.1/DTD/svg11.dtd">
<svg version="1.1" xmlns="http://www.w3.org/2000/svg" xmlns:xlink="http://www.w3.org/1999/xlink" x="0px" y="0px" viewBox="0 0 1000 1000" enable-background="new 0 0 1000 1000" xml:space="preserve">
<metadata> Svg Vector Icons : http://www.sfont.cn </metadata>
<g><path d="M976.7,914.2c17.8,17.8,17.8,44.5,0,62.3c-17.8,17.8-44.5,17.8-62.3,0L500,562.3L85.8,976.7c-17.8,17.8-44.5,17.8-62.3,0c-17.8-17.8-17.8-44.5,0-62.3L437.7,500L23.3,85.8C5.6,68,5.6,41.2,23.3,23.4c17.8-17.8,44.5-17.8,62.3,0L500,437.7L914.2,23.3c17.8-17.8,44.5-17.8,62.3,0c17.8,17.8,17.8,44.5,0,62.3L562.3,500L976.7,914.2z"/></g>
</svg>