<?xml version="1.0" encoding="utf-8"?>
<!-- Svg Vector Icons : http://www.sfont.cn -->
<!DOCTYPE svg PUBLIC "-//W3C//DTD SVG 1.1//EN" "http://www.w3.org/Graphics/SVG/1.1/DTD/svg11.dtd">
<svg version="1.1" xmlns="http://www.w3.org/2000/svg" xmlns:xlink="http://www.w3.org/1999/xlink" x="0px" y="0px" viewBox="0 0 1000 1000" enable-background="new 0 0 1000 1000" xml:space="preserve">
<metadata> Svg Vector Icons : http://www.sfont.cn </metadata>
<g><path d="M500,10C229.4,10,10,229.4,10,500c0,270.6,219.4,490,490,490c270.6,0,490-219.4,490-490C990,229.4,770.6,10,500,10z M500,821.6c-33.8,0-61.3-27.4-61.3-61.3c0-33.8,27.4-61.3,61.3-61.3c33.8,0,61.3,27.4,61.3,61.3C561.3,794.1,533.8,821.6,500,821.6z M555,576.6c0,33.8-16.8,53-36.9,61.2h-38.9c-17.3-13.8-34.1-27.4-34.1-61.2l-21.6-352.2c0-33.8,27.4-61.3,61.3-61.3h30.6c33.8,0,61.3,27.4,61.3,61.3L555,576.6z"/></g>
</svg>