<?xml version="1.0" encoding="utf-8"?>
<!-- Svg Vector Icons : http://www.sfont.cn -->
<!DOCTYPE svg PUBLIC "-//W3C//DTD SVG 1.1//EN" "http://www.w3.org/Graphics/SVG/1.1/DTD/svg11.dtd">
<svg version="1.1" xmlns="http://www.w3.org/2000/svg" xmlns:xlink="http://www.w3.org/1999/xlink" x="0px" y="0px" viewBox="0 0 1000 1000" enable-background="new 0 0 1000 1000" xml:space="preserve">
<metadata> Svg Vector Icons : http://www.sfont.cn </metadata>
<g><path d="M500,10C229.4,10,10,229.4,10,500c0,270.6,219.4,490,490,490c270.6,0,490-219.4,490-490C990,229.4,770.6,10,500,10z M737.7,677.1c8.1,8.1,12.6,18.9,12.6,30.4s-4.5,22.3-12.6,30.4c-8.1,8.1-18.9,12.6-30.4,12.6s-22.2-4.5-30.4-12.6L502.7,563.5L328.4,737.8c-8.1,8.1-18.9,12.6-30.4,12.6c-11.5,0-22.2-4.5-30.4-12.6c-8.1-8.1-12.6-18.9-12.6-30.4s4.5-22.2,12.6-30.4L442,502.8L267.7,328.5c-8.1-8.1-12.6-18.9-12.6-30.4s4.5-22.3,12.6-30.4c8.1-8.1,18.9-12.6,30.4-12.6c11.5,0,22.2,4.5,30.4,12.6l174.3,174.3L677,267.8c8.1-8.1,18.9-12.6,30.4-12.6c11.5,0,22.3,4.5,30.4,12.6c8.1,8.1,12.6,18.9,12.6,30.4s-4.5,22.3-12.6,30.4L563.4,502.8L737.7,677.1z"/></g>
</svg>