<?xml version="1.0" encoding="utf-8"?>
<!-- Svg Vector Icons : http://www.sfont.cn -->
<!DOCTYPE svg PUBLIC "-//W3C//DTD SVG 1.1//EN" "http://www.w3.org/Graphics/SVG/1.1/DTD/svg11.dtd">
<svg version="1.1" xmlns="http://www.w3.org/2000/svg" xmlns:xlink="http://www.w3.org/1999/xlink" x="0px" y="0px" viewBox="0 0 1000 1000" enable-background="new 0 0 1000 1000" xml:space="preserve">
<metadata> Svg Vector Icons : http://www.sfont.cn </metadata>
<g><path d="M500,990C229.4,990,10,770.6,10,500C10,229.4,229.4,10,500,10s490,219.4,490,490C990,770.6,770.6,990,500,990z M788.8,333.8L788.8,333.8c-22.9-22.8-59.9-22.8-82.7,0L439.9,600L294.3,454.4c-22.9-22.9-60.1-22.9-83.1,0v0c-22.9,22.9-22.9,60.1,0,83l171.3,171.4c2.9,6.8,6.9,13.2,12.4,18.7v0c12.3,12.3,28.5,17.4,44.6,16.5c16.1,0.9,32.4-4.3,44.7-16.6v0c5.7-5.7,9.9-12.2,12.8-19.2l291.7-291.7C811.6,393.7,811.6,356.6,788.8,333.8z"/></g>
</svg>